<?xml version="1.0" standalone="no"?>
<!DOCTYPE svg PUBLIC "-//W3C//DTD SVG 20010904//EN"
 "http://www.w3.org/TR/2001/REC-SVG-20010904/DTD/svg10.dtd">
<svg version="1.0" xmlns="http://www.w3.org/2000/svg"
 width="40.000000pt" height="40.000000pt" viewBox="0 0 512.000000 512.000000"
 preserveAspectRatio="xMidYMid meet">

<g transform="translate(0.000000,512.000000) scale(0.100000,-0.100000)"
fill="#000000" stroke="none">
<path d="M2685 4673 c-47 -24 -86 -64 -106 -108 -16 -35 -19 -68 -19 -282 l0
-243 -27 -5 c-95 -20 -127 -28 -206 -52 l-87 -26 -88 27 c-178 54 -224 60
-442 61 -179 0 -218 -3 -309 -23 -392 -88 -713 -305 -932 -630 -260 -387 -324
-857 -179 -1303 70 -214 195 -416 360 -579 211 -210 441 -338 730 -407 84 -20
141 -26 285 -30 202 -5 326 10 488 62 l87 28 88 -26 c78 -24 110 -32 205 -52
l27 -5 0 -241 c0 -194 3 -247 16 -277 33 -79 110 -132 194 -132 88 0 152 38
193 115 21 37 22 57 25 287 3 246 3 248 25 253 209 45 308 79 440 147 l86 44
158 -158 c182 -183 213 -202 307 -196 108 7 185 81 194 186 8 90 -11 121 -173
282 -80 80 -145 149 -145 155 0 6 19 33 41 60 153 185 270 430 316 661 l16 84
244 0 c197 0 251 3 281 15 169 71 169 319 0 390 -30 12 -84 15 -281 15 l-244
0 -16 84 c-22 111 -67 247 -117 351 -40 84 -151 256 -212 328 l-32 37 151 153
c165 168 178 189 171 287 -5 68 -36 120 -94 160 -49 33 -145 40 -200 14 -22
-10 -110 -88 -201 -178 l-163 -159 -117 55 c-122 58 -234 97 -338 118 -33 6
-68 14 -77 16 -15 4 -17 30 -20 252 -3 230 -4 250 -25 287 -27 50 -58 80 -105
100 -48 19 -134 19 -173 -2z m182 -1054 c403 -45 746 -312 884 -690 50 -136
62 -209 62 -369 0 -160 -12 -233 -62 -369 -116 -317 -379 -561 -707 -656 -73
-21 -272 -51 -281 -42 -1 2 26 37 63 78 170 192 289 431 346 692 32 148 32
446 0 594 -56 260 -186 517 -348 692 -60 65 -72 81 -59 81 3 0 49 -5 102 -11z
m-1377 -1060 l0 -1041 -37 7 c-124 23 -304 115 -434 221 -154 126 -291 344
-346 549 -23 89 -26 118 -26 265 0 146 3 176 26 262 76 287 256 521 512 668
74 41 251 110 288 110 16 0 17 -56 17 -1041z"/>
</g>
</svg>
